<svg id="Layer_1" data-name="Layer 1" xmlns="http://www.w3.org/2000/svg" viewBox="0 0 40 40"><defs><style>.cls-1{fill:#632a7b;}</style></defs><title>icon_meal_new</title><g id="home---gcc"><g id="home"><g id="Group-11"><g id="Group-9"><g id="icon_meal" data-name="icon meal"><path class="cls-1" d="M38.64,6.7H30v-3l4.3-2.5a.69.69,0,0,0,.3-.9.75.75,0,0,0-1-.2L29,2.7a.1.1,0,0,0-.1.1c-.2.1-.2.3-.2.5V6.6H20a1.32,1.32,0,0,0-1.3,1.3v2.7a1.52,1.52,0,0,0,.7,1.2l.1,2.6A45.79,45.79,0,0,0,14,14c-8.4,0-14,2.9-14,7.3V22a1.32,1.32,0,0,0,1.3,1.3H2v1.5a2.59,2.59,0,0,0-1.9,2,3.14,3.14,0,0,0,.5,2.1,2.3,2.3,0,0,0,1.4.9v.7a2.09,2.09,0,0,0-2,2.1v1.3A2.16,2.16,0,0,0,2,36v2a2,2,0,0,0,2,2H36a2.06,2.06,0,0,0,2-1.9l1.2-26.2a1.39,1.39,0,0,0,.7-1.2V8A1.21,1.21,0,0,0,38.64,6.7ZM20,8h18.7v2.7H20ZM3.34,30.6v-.7a3.38,3.38,0,0,0,1.2-.6,2.87,2.87,0,0,0,.8-1.3h2.1a2.69,2.69,0,0,0,5.2,0h2.9a2.69,2.69,0,0,0,5.2,0h2.1a2.09,2.09,0,0,0,.7,1.3,2.28,2.28,0,0,0,1.2.6v.7ZM27,25.2a3.13,3.13,0,0,0-1-.5V23.3h.7A1.32,1.32,0,0,0,28,22V21h0a4.58,4.58,0,0,0-.8-2.4l-.1-.1a5.45,5.45,0,0,1,2.2-.5,4.7,4.7,0,0,1,0,9.4,5.07,5.07,0,0,1-1.3-.2A3.48,3.48,0,0,0,27,25.2ZM1.34,21.3c0-3.5,5.2-6,12.7-6,6,0,10.6,1.6,12.1,4.1a3.2,3.2,0,0,1,.5,1.9V22H1.34Zm23.3,2v1.3H3.34V23.3ZM1.74,28a1.21,1.21,0,0,1,1.1-2h22.5a1.32,1.32,0,0,1,1.3,1.3,1.5,1.5,0,0,1-1.4,1.3c-.1,0-.2,0-.2.1a.71.71,0,0,1-.6-.3,1.16,1.16,0,0,1-.4-1,.68.68,0,0,0-.7-.7H20a.68.68,0,0,0-.7.7,1.3,1.3,0,0,1-2.6,0,.68.68,0,0,0-.7-.7H12a.68.68,0,0,0-.7.7,1.3,1.3,0,0,1-2.6,0,.68.68,0,0,0-.7-.7H4.74a.68.68,0,0,0-.7.7c0,.4-.1.8-.4.9-.2.3-.5.3-.9.3A1.1,1.1,0,0,1,1.74,28Zm-.4,6V32.7c0-.9.7-.8.7-.8H26a.68.68,0,0,1,.7.7v1.3a.68.68,0,0,1-.7.7H2.14C1.74,34.6,1.34,34.3,1.34,34Zm2,4V36h21.3v2a.68.68,0,0,1-.7.7H4C3.64,38.6,3.34,38.4,3.34,38Zm33.4,0a.68.68,0,0,1-.7.7H25.94a.75.75,0,0,0,.1-.5V36a2.19,2.19,0,0,0,1.9-1.4,1.88,1.88,0,0,0,.2-.8V32.5A2.11,2.11,0,0,0,26,30.4v-.6a3,3,0,0,0,1.8-1.5,7.77,7.77,0,0,0,1.6.2,6.19,6.19,0,0,0,6.1-6.1,6,6,0,0,0-6-6,5.61,5.61,0,0,0-3.1.9A11.91,11.91,0,0,0,21,14.6l-.3-2.6H38Z"/></g></g></g></g></g></svg>