<?xml version="1.0" encoding="utf-8"?>
<!-- Generator: Adobe Illustrator 22.1.0, SVG Export Plug-In . SVG Version: 6.00 Build 0)  -->
<svg version="1.1" id="Layer_1" xmlns="http://www.w3.org/2000/svg" xmlns:xlink="http://www.w3.org/1999/xlink" x="0px" y="0px"
	 viewBox="0 0 40 40" style="enable-background:new 0 0 40 40;" xml:space="preserve">
<style type="text/css">
	.st0{fill:#632A7B;}
</style>
<g id="home---gcc_1_">
	<g id="home_1_" transform="translate(-281.000000, -432.000000)">
		<g id="Group-11_1_" transform="translate(281.000000, 432.000000)">
			<g id="Group-10">
				<g id="icon_rest">
					<g id="shop">
						<g id="Group">
							<path id="Shape" class="st0" d="M35.6,19.2c-1.7,0-3.1-0.9-3.9-2.2c-0.8,1.3-2.2,2.2-3.9,2.2s-3.1-0.9-3.9-2.2
								c-0.8,1.3-2.2,2.2-3.9,2.2c-1.7,0-3.1-0.9-3.9-2.2c-0.8,1.3-2.2,2.2-3.9,2.2S9.1,18.3,8.3,17c-0.8,1.3-2.2,2.2-3.9,2.2
								c-2.5,0-4.5-2-4.5-4.5v-6c0-0.1,0-0.2,0-0.2l2.9-7.3c0.3-0.3,0.5-0.4,0.8-0.4h33.1c0.2,0,0.5,0.2,0.6,0.4l2.8,7.3
								c0,0.1,0,0.1,0,0.2v6C40.1,17.2,38.1,19.2,35.6,19.2z M31.7,14.1c0.3,0,0.6,0.3,0.6,0.6c0,1.8,1.5,3.3,3.3,3.3
								s3.3-1.5,3.3-3.3V8.8L36.2,2H4L1.3,8.8v5.9c0,1.8,1.5,3.3,3.3,3.3s3.3-1.5,3.3-3.3c0-0.3,0.3-0.6,0.6-0.6s0.6,0.3,0.6,0.6
								c0,1.8,1.5,3.3,3.3,3.3s3.3-1.5,3.3-3.3c0-0.3,0.3-0.6,0.6-0.6s0.6,0.3,0.6,0.6c0,1.8,1.5,3.3,3.3,3.3s3.3-1.5,3.3-3.3
								c0-0.3,0.3-0.6,0.6-0.6s0.6,0.3,0.6,0.6c0,1.8,1.5,3.3,3.3,3.3s3.3-1.5,3.3-3.3C31.1,14.4,31.4,14.1,31.7,14.1z"/>
							<path id="Shape_1_" class="st0" d="M34.5,39.2H5.7c-1.5,0-2.6-1.2-2.6-2.6V23.8c0-0.3,0.3-0.6,0.6-0.6s0.6,0.3,0.6,0.6v12.8
								c0,0.8,0.6,1.4,1.4,1.4h28.8c0.8,0,1.4-0.6,1.4-1.4V23.8c0-0.3,0.3-0.6,0.6-0.6s0.6,0.3,0.6,0.6v12.8
								C37.1,38,36,39.2,34.5,39.2z"/>
							<g id="Shape_2_" transform="translate(7.272727, 21.818182)">
								<path class="st0" d="M10.3,17.2H1.5c-0.3,0-0.6-0.3-0.6-0.6v-15C0.9,1.2,1.2,1,1.5,1h8.8c0.3,0,0.6,0.3,0.6,0.6v15
									C10.9,16.9,10.7,17.2,10.3,17.2z M2.2,16h7.6V2.2H2.2V16z"/>
								<path class="st0" d="M24.1,10.2H13.7c-0.3,0-0.6-0.3-0.6-0.6v-8c0-0.4,0.3-0.6,0.6-0.6h10.4c0.3,0,0.6,0.3,0.6,0.6v8
									C24.7,9.9,24.4,10.2,24.1,10.2z M14.3,8.9h9.2V2.2h-9.2V8.9z"/>
							</g>
						</g>
					</g>
				</g>
			</g>
		</g>
	</g>
</g>
</svg>
