<?xml version="1.0" encoding="utf-8"?>
<!-- Generator: Adobe Illustrator 22.1.0, SVG Export Plug-In . SVG Version: 6.00 Build 0)  -->
<svg version="1.1" id="Layer_1" xmlns="http://www.w3.org/2000/svg" xmlns:xlink="http://www.w3.org/1999/xlink" x="0px" y="0px"
	 viewBox="0 0 40 40" style="enable-background:new 0 0 40 40;" xml:space="preserve">
<style type="text/css">
	.st0{fill:#632A7B;}
</style>
<g id="Symbols_1_">
	<g id="icon_smiley">
		<g id="smile">
			<g id="Group-8" transform="translate(12.131148, 11.130081)">
				<path id="Fill-1_1_" class="st0" d="M3.5,5.5c1.1,0,2-0.9,2-2s-0.9-2-2-2c-1.1,0.1-2,1-2,2.1C1.5,4.6,2.4,5.5,3.5,5.5"/>
				<path id="Fill-3" class="st0" d="M12.3,5.5c1.1,0,2-0.9,2-2s-0.9-2-2-2s-2,0.9-2,2S11.2,5.5,12.3,5.5"/>
			</g>
			<g id="Group-7">
				<path id="Fill-5" class="st0" d="M20,37c-9.5,0-17.2-7.6-17.2-17s7.7-17,17.2-17s17.2,7.6,17.2,17S29.5,37,20,37 M20,1.7
					C9.8,1.7,1.5,9.9,1.5,20.1S9.8,38.3,20,38.3s18.5-8.2,18.5-18.3S30.2,1.7,20,1.7"/>
			</g>
			<path id="Fill-8" class="st0" d="M31.1,21.2c-0.3,0-0.6,0.2-0.7,0.5c-1,4.8-5.4,8.4-10.5,8.4c-5,0-9.3-3.3-10.4-8
				c-0.1-0.3-0.3-0.5-0.7-0.5c-0.1,0-0.1,0-0.2,0C8.2,21.7,8,22,8.1,22.4c1.3,5.3,6.1,9.1,11.8,9.1s10.7-4,11.9-9.4
				c0.1-0.4-0.2-0.7-0.5-0.8C31.2,21.2,31.2,21.2,31.1,21.2z"/>
		</g>
	</g>
</g>
</svg>
