<?xml version="1.0" encoding="utf-8"?>
<!-- Generator: Adobe Illustrator 22.1.0, SVG Export Plug-In . SVG Version: 6.00 Build 0)  -->
<svg version="1.1" id="Layer_1" xmlns="http://www.w3.org/2000/svg" xmlns:xlink="http://www.w3.org/1999/xlink" x="0px" y="0px"
	 viewBox="0 0 32 32" style="enable-background:new 0 0 32 32;" xml:space="preserve">
<style type="text/css">
	.st0{fill:#632A7B;}
	.st1{opacity:0;}
</style>
<g id="icons_x2F_area">
	<g id="Group-2_1_" class="st1">
		<rect id="Rectangle-Copy_1_" x="3.5" y="3.5" class="st0" width="25" height="25"/>
	</g>
	<g id="Page-1_1_" transform="translate(6.000000, 4.000000)">
		<g id="Group-3" transform="translate(1.578947, 0.531489)">
			<path id="Fill-1_3_" class="st0" d="M7.9,0.6c-0.1,0-0.2,0-0.4,0c-3.7,0.2-6.8,3.3-7,7.1c-0.2,3.1,1.7,6,4.5,7.2
				c0.8,0.3,1.4,1,1.7,1.8l1.2,3.1L9,16.7c0.3-0.8,0.9-1.5,1.7-1.8c2.7-1.2,4.5-3.9,4.5-6.9C15.3,3.9,12,0.6,7.9,0.6 M7.9,21.8
				c-0.2,0-0.4-0.1-0.5-0.3L5.7,17c-0.2-0.5-0.6-1-1.1-1.2c-3.2-1.3-5.3-4.6-5.1-8.2c0.2-4.3,3.7-7.9,8-8.1c4.8-0.2,8.8,3.7,8.8,8.5
				c0,3.4-2,6.5-5.2,7.8C10.6,16,10.2,16.5,10,17l-1.6,4.5C8.3,21.7,8.1,21.8,7.9,21.8"/>
		</g>
		<path id="Fill-4" class="st0" d="M9.5,5.4c-1.7,0-3.2,1.4-3.2,3.1s1.4,3.2,3.2,3.2s3.2-1.4,3.2-3.2S11.2,5.4,9.5,5.4 M9.5,12.8
			c-2.3,0-4.2-1.9-4.2-4.3s1.9-4.2,4.2-4.2s4.2,1.9,4.2,4.3S11.8,12.8,9.5,12.8"/>
		<path id="Fill-6_1_" class="st0" d="M9.5,24.5c-3.7,0-10-0.6-10-2.7c0-1.7,3.9-2.3,6.3-2.5c0.3,0,0.5,0.2,0.6,0.5
			c0,0.3-0.2,0.6-0.5,0.6c-3.9,0.4-5.2,1.2-5.3,1.5c0.2,0.5,3.4,1.6,8.9,1.6s8.8-1,8.9-1.6c-0.1-0.3-1.6-1.1-5.6-1.4
			c-0.3,0-0.5-0.3-0.5-0.6c0-0.3,0.3-0.5,0.6-0.5c2.5,0.2,6.6,0.8,6.6,2.5C19.5,23.9,13.2,24.5,9.5,24.5"/>
	</g>
</g>
</svg>
