<?xml version="1.0" encoding="utf-8"?>
<!-- Generator: Adobe Illustrator 22.1.0, SVG Export Plug-In . SVG Version: 6.00 Build 0)  -->
<svg version="1.1" id="Layer_1" xmlns="http://www.w3.org/2000/svg" xmlns:xlink="http://www.w3.org/1999/xlink" x="0px" y="0px"
	 viewBox="0 0 32 32" style="enable-background:new 0 0 32 32;" xml:space="preserve">
<style type="text/css">
	.st0{fill:#632A7B;}
	.st1{opacity:0;}
</style>
<g id="icons_x2F_cuisine">
	<g id="Group-2" class="st1">
		<rect id="Rectangle-Copy" x="3.5" y="3.5" class="st0" width="25" height="25"/>
	</g>
	<g id="Page-1" transform="translate(4.000000, 8.000000)">
		<path id="Fill-1_2_" class="st0" d="M21.8,12.3c-0.3,0-0.5-0.2-0.5-0.5c0-5-4.1-9-9.2-9s-9.2,4.1-9.2,9c0,0.3-0.2,0.5-0.5,0.5
			s-0.5-0.2-0.5-0.5c0-5.6,4.6-10.1,10.3-10.1s10.3,4.5,10.3,10.1C22.3,12,22.1,12.3,21.8,12.3"/>
		<g id="Group-5" transform="translate(0.000000, 12.085938)">
			<path id="Fill-3_1_" class="st0" d="M22.2,2.2H1.8c-1,0-1.8-0.5-2.2-1.4c-0.2-0.3-0.1-0.6,0.2-0.7s0.6,0,0.7,0.2
				c0.2,0.5,0.7,0.8,1.3,0.8h20.4c0.5,0,1-0.3,1.3-0.8C23.6,0,24-0.1,24.2,0.1c0.3,0.1,0.4,0.4,0.2,0.7C24,1.6,23.2,2.2,22.2,2.2"/>
		</g>
		<path id="Fill-6" class="st0" d="M13.9,2.4c-0.3,0-0.5-0.2-0.5-0.5c0-0.7-0.6-1.3-1.4-1.3s-1.4,0.6-1.4,1.3c0,0.3-0.2,0.5-0.5,0.5
			S9.6,2.2,9.6,1.9c0-1.3,1.1-2.4,2.4-2.4s2.4,1.1,2.4,2.4C14.4,2.2,14.2,2.4,13.9,2.4"/>
		<path id="Fill-8_1_" class="st0" d="M16.3,16.4H7.7c-1.5,0-2.7-1.2-2.7-2.7c0-0.3,0.2-0.5,0.5-0.5S6,13.4,6,13.7
			c0,0.9,0.7,1.6,1.6,1.6h8.7c0.9,0,1.6-0.7,1.6-1.6c0-0.3,0.2-0.5,0.5-0.5s0.5,0.2,0.5,0.5C19.1,15.2,17.8,16.4,16.3,16.4"/>
	</g>
</g>
</svg>
